<?xml version="1.0" encoding="utf-8"?>
<!-- Generator: Adobe Illustrator 25.4.1, SVG Export Plug-In . SVG Version: 6.00 Build 0)  -->
<svg version="1.1" id="Layer_1" xmlns="http://www.w3.org/2000/svg" xmlns:xlink="http://www.w3.org/1999/xlink" x="0px" y="0px"
	 viewBox="0 0 997.8 106.8" style="enable-background:new 0 0 997.8 106.8;" xml:space="preserve">
<style type="text/css">
	.st0{fill:#1D1D1B;}
	.st1{fill:#E20A13;}
	.st2{fill:#FCCD3D;}
	.st3{fill:#4A4A49;}
	.st4{fill:#ED1B2F;}
	.st5{fill-rule:evenodd;clip-rule:evenodd;fill:#231F20;}
	.st6{fill:#231F20;}
</style>
<g>
	<polygon class="st0" points="57.3,100.6 0,100.6 34.4,65.6 90.8,65.6 	"/>
	<g>
		<polygon class="st1" points="120.9,100.6 63.6,100.6 98,65.6 154.4,65.6 		"/>
	</g>
	<polygon class="st2" points="184.5,100.6 127.2,100.6 161.6,65.6 218,65.6 	"/>
	<g>
		<path class="st3" d="M232.3,89.1c0,0.8,0,1.8,0,3.1v5.1c0,3.2-0.3,5.5-0.9,6.7c-0.9,1.8-2.8,2.7-5.6,2.7c-3.8,0-5.7-1.4-5.7-4.2
			h2.4c0,1.7,1.1,2.6,3.3,2.6c1.4,0,2.4-0.4,3-1.1s0.9-1.7,1-3c0-0.2,0-0.5,0-0.9s0-0.8,0-1.4c-1.1,1.6-2.6,2.4-4.6,2.4
			s-3.5-0.7-4.6-2.1c-1-1.2-1.5-2.9-1.5-4.9s0.5-3.6,1.5-4.9c1.1-1.4,2.6-2.1,4.5-2.1c2.1,0,3.7,0.9,4.7,2.6v-2.4h2.4
			C232.4,87.8,232.3,88.3,232.3,89.1z M229.9,94.1c0-1.4-0.3-2.5-1-3.5c-0.7-1.1-1.8-1.7-3.1-1.7c-1.4,0-2.5,0.6-3.2,1.7
			c-0.6,1-0.9,2.2-0.9,3.7s0.3,2.7,0.9,3.6c0.7,1.1,1.8,1.7,3.2,1.7s2.5-0.6,3.2-1.8C229.6,96.8,229.9,95.6,229.9,94.1z"/>
		<path class="st3" d="M238.1,94.8v0.3c0,1.4,0.3,2.5,1,3.4c0.7,1,1.8,1.5,3.1,1.5c2,0,3.2-1,3.6-3.1h2.3c-0.3,1.6-0.9,2.8-2,3.6
			c-1.1,0.8-2.4,1.2-4.1,1.2c-2.1,0-3.7-0.6-4.8-1.9c-1-1.2-1.6-2.9-1.6-5c0-2.2,0.5-3.9,1.6-5.3s2.8-2.1,5-2.1c4,0,5.9,2.5,5.9,7.6
			h-10V94.8z M245,90.2c-0.6-0.9-1.5-1.3-2.8-1.3c-1.2,0-2.2,0.4-2.9,1.3c-0.7,0.8-1,1.8-1.1,3h7.7C245.9,92,245.6,91,245,90.2z"/>
		<path class="st3" d="M258.4,89.6c-0.2,0-0.4,0-0.6,0c-2.5,0-3.8,1.4-3.8,4.2v7.4h-2.4v-9.8c0,0.3,0-1.1-0.1-4.1h2.4l0.1,2.2
			c0.9-1.5,2.3-2.3,4.2-2.3c0.1,0,0.3,0,0.4,0s0.3,0,0.4,0v2.3C258.8,89.7,258.6,89.7,258.4,89.6z"/>
		<path class="st3" d="M279.8,101.3v-8.2c0-2.7-1.1-4-3.2-4c-2.4,0-3.6,1.5-3.6,4.5v7.7h-2.4v-8c0-1.3-0.2-2.3-0.6-2.9
			c-0.5-0.8-1.4-1.2-2.6-1.2s-2.1,0.5-2.8,1.4c-0.6,0.8-0.8,1.8-0.8,3.1v7.7h-2.4c0-3.3,0-6.4,0-9.1c0-0.3,0-0.7,0-1
			c0-0.4,0-0.8,0-1.3c0-0.7,0-1.2,0-1.6s0-0.7,0-0.8h2.4l0.1,2.3c0.9-1.6,2.4-2.5,4.4-2.5c2.2,0,3.6,0.9,4.4,2.8
			c1-1.9,2.6-2.8,4.8-2.8c1.8,0,3.1,0.6,3.8,1.7c0.6,0.9,1,2.4,1,4.2v8.1L279.8,101.3L279.8,101.3z"/>
		<path class="st3" d="M295.1,101.3c0-0.2-0.1-0.5-0.1-0.8s-0.1-0.7-0.1-1.2c-1,1.5-2.6,2.2-4.7,2.2c-1.4,0-2.5-0.3-3.4-1
			c-1-0.7-1.5-1.8-1.5-3.1c0-3.1,2.6-4.6,7.9-4.6c0.1,0,0.2,0,0.5,0c0.2,0,0.5,0,0.9,0c0-0.2,0-0.3,0-0.5c0-0.1,0-0.2,0-0.3
			c0-2.2-1-3.3-3-3.3c-1.8,0-2.7,0.8-2.9,2.4h-2.4c0.1-1.4,0.6-2.4,1.7-3.1c0.9-0.6,2.1-0.9,3.5-0.9c1.8,0,3.2,0.4,4,1.2
			c0.8,0.8,1.3,2,1.3,3.8v5.1c0,1.8,0.1,3.2,0.4,4.1C297.2,101.3,295.1,101.3,295.1,101.3z M294.7,94.4c-0.8-0.1-1.2-0.1-1.2-0.1
			c-3.8,0-5.6,1-5.6,3.1c0,0.8,0.3,1.5,0.9,1.9s1.3,0.7,2.1,0.7c1.6,0,2.7-0.6,3.2-1.8C294.5,97.5,294.7,96.2,294.7,94.4z"/>
		<path class="st3" d="M310.6,101.3v-7.7c0-1.5-0.2-2.5-0.5-3.1c-0.5-0.9-1.4-1.3-2.7-1.3c-2.5,0-3.8,1.8-3.8,5.3v6.9h-2.4V91
			c0-1,0-2.2-0.1-3.6h2.4l0.1,2.2c1.1-1.6,2.6-2.4,4.5-2.4c3.3,0,4.9,1.8,4.9,5.4v8.6h-2.4V101.3z"/>
		<path class="st3" d="M343.7,101.3v-8.2c0-2.7-1.1-4-3.2-4c-2.4,0-3.6,1.5-3.6,4.5v7.7h-2.4v-8c0-1.3-0.2-2.3-0.6-2.9
			c-0.5-0.8-1.4-1.2-2.6-1.2s-2.1,0.5-2.8,1.4c-0.6,0.8-0.8,1.8-0.8,3.1v7.7h-2.4c0-3.3,0-6.4,0-9.1c0-0.3,0-0.7,0-1
			c0-0.4,0-0.8,0-1.3c0-0.7,0-1.2,0-1.6s0-0.7,0-0.8h2.4l0.1,2.3c0.9-1.6,2.4-2.5,4.4-2.5c2.2,0,3.6,0.9,4.4,2.8
			c1-1.9,2.6-2.8,4.8-2.8c1.8,0,3.1,0.6,3.8,1.7c0.6,0.9,1,2.4,1,4.2v8.1L343.7,101.3L343.7,101.3z"/>
		<path class="st3" d="M359,101.3c0-0.2-0.1-0.5-0.1-0.8s-0.1-0.7-0.1-1.2c-1,1.5-2.6,2.2-4.7,2.2c-1.4,0-2.5-0.3-3.4-1
			c-1-0.7-1.5-1.8-1.5-3.1c0-3.1,2.6-4.6,7.9-4.6c0.1,0,0.2,0,0.5,0c0.2,0,0.5,0,0.9,0c0-0.2,0-0.3,0-0.5c0-0.1,0-0.2,0-0.3
			c0-2.2-1-3.3-3-3.3c-1.8,0-2.7,0.8-2.9,2.4h-2.4c0.1-1.4,0.6-2.4,1.7-3.1c0.9-0.6,2.1-0.9,3.5-0.9c1.8,0,3.2,0.4,4,1.2
			c0.8,0.8,1.3,2,1.3,3.8v5.1c0,1.8,0.1,3.2,0.4,4.1C361.1,101.3,359,101.3,359,101.3z M358.5,94.4c-0.8-0.1-1.2-0.1-1.2-0.1
			c-3.8,0-5.6,1-5.6,3.1c0,0.8,0.3,1.5,0.9,1.9s1.3,0.7,2.1,0.7c1.6,0,2.7-0.6,3.2-1.8C358.3,97.5,358.5,96.2,358.5,94.4z"/>
		<path class="st3" d="M374.7,101.3l-0.1-2.1c-1.1,1.6-2.6,2.3-4.4,2.3c-2,0-3.5-0.7-4.6-2.2c-1-1.3-1.5-3-1.5-5
			c0-1.9,0.5-3.6,1.5-4.9c1.1-1.5,2.6-2.2,4.5-2.2c2,0,3.5,0.8,4.5,2.5v-8.2h2.4v15.8c0,2,0,3.3,0.1,4L374.7,101.3L374.7,101.3z
			 M374.6,94.4c0-1.5-0.3-2.7-0.9-3.7c-0.7-1.2-1.8-1.7-3.2-1.7c-1.3,0-2.3,0.6-3,1.8c-0.5,1-0.8,2.2-0.8,3.7s0.3,2.8,0.9,3.7
			c0.7,1.1,1.8,1.7,3.2,1.7c1.4,0,2.4-0.6,3-1.7C374.3,97.1,374.6,95.9,374.6,94.4z"/>
		<path class="st3" d="M382.8,94.8v0.3c0,1.4,0.3,2.5,1,3.4c0.7,1,1.8,1.5,3.1,1.5c2,0,3.2-1,3.6-3.1h2.3c-0.3,1.6-0.9,2.8-2,3.6
			c-1.1,0.8-2.4,1.2-4.1,1.2c-2.1,0-3.7-0.6-4.8-1.9c-1-1.2-1.6-2.9-1.6-5c0-2.2,0.5-3.9,1.6-5.3s2.8-2.1,5-2.1c4,0,5.9,2.5,5.9,7.6
			h-10V94.8z M389.6,90.2c-0.6-0.9-1.5-1.3-2.8-1.3c-1.2,0-2.2,0.4-2.9,1.3c-0.7,0.8-1,1.8-1.1,3h7.7C390.5,92,390.2,91,389.6,90.2z
			"/>
	</g>
</g>
<g>
	<path class="st4" d="M460.7,101.3L562,0h48.3l101.3,101.3h-8.3L606.9,5l-96,96.4H460.7L460.7,101.3z M659.4,96.8
		c4.9,0,5.7-4.6,5.7-8.9c0-4.3-0.8-8.9-5.7-8.9s-5.7,4.6-5.7,8.9S654.5,96.8,659.4,96.8L659.4,96.8z M659.4,102.2
		c-8.8,0-14-5.8-14-14.2s5.2-14.2,14-14.2s14,5.8,14,14.2S668.2,102.2,659.4,102.2L659.4,102.2z M627.7,74.5v-5.3l8-2.9v8.2h6.1v5.4
		h-6.1v12.5c0,3.5,0.6,4.5,3.3,4.5c0.9,0,1.7-0.1,2.6-0.2v4.7c-0.9,0.4-5.2,0.8-6.3,0.8c-6.3,0-7.6-3.3-7.6-9.1V79.9h-5.4v-5.4
		L627.7,74.5L627.7,74.5z M605.9,96.8c4.9,0,5.7-4.6,5.7-8.9c0-4.3-0.8-8.9-5.7-8.9s-5.7,4.6-5.7,8.9S601,96.8,605.9,96.8
		L605.9,96.8z M605.9,102.2c-8.8,0-14-5.8-14-14.2s5.3-14.2,14-14.2c8.8,0,14,5.8,14,14.2S614.7,102.2,605.9,102.2L605.9,102.2z
		 M565.2,69h7c3.6,0.1,5.8,1.5,5.8,5c0,3.5-2.2,5.3-5.8,5.3h-7V69L565.2,69L565.2,69z M590.1,101.3l-10.6-17.1
		c4.7-2.3,7.3-6.3,7.3-10.5c0-7.5-6.8-11.1-13.4-11.2h-16.5v38.8h8.4l0-15.8h5.4l9.7,15.8L590.1,101.3L590.1,101.3z"/>
	<g>
		<path class="st5" d="M892.5,62.5h-41.6l-6.8,38.8h9.6l5.1-29.1c3.3,0,7.6,0,12,0l-5.1,29.1h9.6l5.1-29.1c3.6,0,6.5,0,9.1,0
			c1.5,0,2.6,1.4,2.4,2.7l-4.7,26.4h9.7c0-0.3,5.2-29.6,5.2-30.6c0-0.8-0.2-1.5-0.4-2.2c-0.5-1.4-1.4-2.7-2.5-3.7
			c-1.3-1.1-2.8-1.8-4.4-2.1C894,62.5,893.2,62.4,892.5,62.5L892.5,62.5z"/>
		<polygon class="st5" points="759.4,62.5 720.9,62.5 719.1,72.2 757.7,72.2 		"/>
		<polygon class="st5" points="802.7,62.5 764.2,62.5 762.5,72.2 801,72.2 		"/>
		<polygon class="st5" points="714,101.3 723.6,101.3 726.2,86.8 755.1,86.8 756.8,77.1 718.3,77.1 		"/>
		<polygon class="st5" points="757.3,101.3 795.9,101.3 797.6,91.6 769.1,91.6 769.9,86.8 798.4,86.8 800.1,77.1 761.6,77.1 		"/>
		<path class="st5" d="M836.4,62.5h-28.9l-1.7,9.7h27.3c1.3,0,2.4,1.1,2.4,2.4c0,1.3-1.1,2.4-2.4,2.4H805l-1.7,9.7l-2.6,14.6h9.6
			l2.6-14.6h16.4c1.3,0,2.6,1.3,2.3,2.7l-2.1,11.8h9.6l2-11.4c0.4-2.5-0.8-4.7-2.3-6.1c3.9-1.9,5.9-5.7,6.9-10
			C847.2,67.8,842.8,62.5,836.4,62.5L836.4,62.5z"/>
		<g>
			<polygon class="st6" points="981.3,101.3 970.7,88.4 957.2,101.3 942.7,101.3 983.3,62.5 997.8,62.5 978.7,80.8 995.2,101.3 			
				"/>
			<polygon class="st4" points="969.6,69.4 961.5,77.1 949.6,62.5 964.1,62.5 			"/>
		</g>
		<path class="st6" d="M936.8,62.5h-28.1l-6.8,38.8h9.6l2.6-14.6h19.2l-2.6,14.6h9.6l5.1-29.1C946.1,68.3,942.7,62.5,936.8,62.5
			L936.8,62.5z M935,77l-19.2,0l0.9-4.9l16.3,0c1.5,0,2.6,1.4,2.4,2.8L935,77L935,77z"/>
	</g>
</g>
</svg>
